<svg id="レイヤー_1" data-name="レイヤー 1" xmlns="http://www.w3.org/2000/svg" viewBox="0 0 364.8 165.45"><defs><style>.cls-1{fill:#3e3a39;}.cls-2{fill:#595757;}.cls-3{fill:#727171;}.cls-4{fill:#898989;}.cls-12,.cls-5,.cls-7{fill:#fff;}.cls-5{stroke:#ea5e6a;stroke-width:8.39px;}.cls-5,.cls-6,.cls-7{stroke-miterlimit:10;}.cls-6{fill:none;stroke-linecap:round;stroke-width:8.68px;}.cls-6,.cls-7{stroke:#231815;}.cls-7{stroke-width:2.6px;}.cls-8{fill:#b5b5b6;}.cls-9{fill:#9fa0a0;}.cls-10{fill:#231815;}.cls-11{fill:#c9caca;}</style></defs><title>ms-bio.info_logo_w</title><path class="cls-1" d="M248.32,422.6V373.86a3.25,3.25,0,1,0-6.51,0v44.2Z" transform="translate(-114.74 -337.96)"/><path class="cls-2" d="M214.85,413.14V402.6a3.25,3.25,0,1,0-6.51,0v11.12Z" transform="translate(-114.74 -337.96)"/><path class="cls-3" d="M194.08,418.82V358.61a3.25,3.25,0,1,0-6.51,0v65.3Z" transform="translate(-114.74 -337.96)"/><path class="cls-4" d="M174.72,479.51a3.25,3.25,0,0,1-3.25-3.25V407.41a3.25,3.25,0,0,1,6.51,0v68.85A3.25,3.25,0,0,1,174.72,479.51Z" transform="translate(-114.74 -337.96)"/><path class="cls-5" d="M224.62,427.26" transform="translate(-114.74 -337.96)"/><path class="cls-6" d="M297.39,479.29" transform="translate(-114.74 -337.96)"/><path class="cls-7" d="M176.82,448.76" transform="translate(-114.74 -337.96)"/><path class="cls-1" d="M307.85,442.77a24.45,24.45,0,1,1,24.45-24.45A24.48,24.48,0,0,1,307.85,442.77Zm0-44.46a20,20,0,1,0,20,20A20,20,0,0,0,307.85,398.31Z" transform="translate(-114.74 -337.96)"/><path class="cls-8" d="M455.08,498.86a24.45,24.45,0,1,1,24.45-24.45A24.48,24.48,0,0,1,455.08,498.86Zm0-44.46a20,20,0,1,0,20,20A20,20,0,0,0,455.08,454.4Z" transform="translate(-114.74 -337.96)"/><path class="cls-4" d="M403.82,498.86a2.22,2.22,0,0,1-2.22-2.22V474.41a20,20,0,0,0-40,0v22.23a2.22,2.22,0,1,1-4.45,0V474.41a24.45,24.45,0,1,1,48.9,0v22.23A2.22,2.22,0,0,1,403.82,498.86Z" transform="translate(-114.74 -337.96)"/><path class="cls-3" d="M379.1,386.86a2.22,2.22,0,0,1-2.22-2.22V362.41a20,20,0,1,0-40,0v22.23a2.22,2.22,0,1,1-4.45,0V362.41a24.45,24.45,0,1,1,48.9,0v22.23A2.22,2.22,0,0,1,379.1,386.86Z" transform="translate(-114.74 -337.96)"/><path class="cls-4" d="M401.33,386.86a2.22,2.22,0,0,1-2.22-2.22V362.41a20,20,0,0,0-40,0v22.23a2.22,2.22,0,1,1-4.45,0V362.41a24.45,24.45,0,1,1,48.9,0v22.23A2.22,2.22,0,0,1,401.33,386.86Z" transform="translate(-114.74 -337.96)"/><path class="cls-9" d="M462.14,387.74H439.91a24.45,24.45,0,0,1,0-48.91h22.23a2.22,2.22,0,0,1,0,4.45H439.91a20,20,0,1,0,0,40h22.23A2.22,2.22,0,0,1,462.14,387.74Z" transform="translate(-114.74 -337.96)"/><path class="cls-8" d="M455.08,409.09H432.85a2.22,2.22,0,0,1,0-4.45h22.23a20,20,0,1,0,0-40H432.85a2.22,2.22,0,0,1,0-4.45h22.23A24.45,24.45,0,1,1,455.08,409.09Z" transform="translate(-114.74 -337.96)"/><path class="cls-3" d="M344.72,498.86a2.22,2.22,0,0,1-2.22-2.22V452.18a2.22,2.22,0,1,1,4.45,0v44.46A2.22,2.22,0,0,1,344.72,498.86Z" transform="translate(-114.74 -337.96)"/><path class="cls-4" d="M381.59,442.77A24.45,24.45,0,1,1,406,418.32,24.48,24.48,0,0,1,381.59,442.77Zm0-44.46a20,20,0,1,0,20,20A20,20,0,0,0,381.59,398.31Z" transform="translate(-114.74 -337.96)"/><path class="cls-3" d="M344.72,442.77a2.22,2.22,0,0,1-2.22-2.22V396.09a2.22,2.22,0,1,1,4.45,0v44.46A2.22,2.22,0,0,1,344.72,442.77Z" transform="translate(-114.74 -337.96)"/><path class="cls-10" d="M281.17,420.54a2.22,2.22,0,0,1-2.22-2.22V373.86a2.22,2.22,0,1,1,4.45,0v44.46A2.22,2.22,0,0,1,281.17,420.54Z" transform="translate(-114.74 -337.96)"/><path class="cls-9" d="M418.46,498.86a2.22,2.22,0,0,1-2.22-2.22V443a2.22,2.22,0,1,1,4.45,0v53.69A2.22,2.22,0,0,1,418.46,498.86Z" transform="translate(-114.74 -337.96)"/><path class="cls-9" d="M418.46,442.77a2.22,2.22,0,0,1-2.22-2.22,24.48,24.48,0,0,1,24.45-24.45,2.22,2.22,0,0,1,0,4.45,20,20,0,0,0-20,20A2.22,2.22,0,0,1,418.46,442.77Z" transform="translate(-114.74 -337.96)"/><circle class="cls-2" cx="229.99" cy="52.58" r="8.59"/><circle class="cls-2" cx="229.99" cy="108.49" r="8.59"/><circle class="cls-3" cx="303.73" cy="108.49" r="8.59"/><path class="cls-8" d="M146.47,480.36a3.25,3.25,0,0,1-3.25-3.25V380.3a3.25,3.25,0,1,1,6.51,0v96.81A3.25,3.25,0,0,1,146.47,480.36Z" transform="translate(-114.74 -337.96)"/><path class="cls-9" d="M158.76,479.51a3.25,3.25,0,0,1-3.25-3.25V443.4a3.25,3.25,0,1,1,6.51,0v32.86A3.25,3.25,0,0,1,158.76,479.51Z" transform="translate(-114.74 -337.96)"/><path class="cls-11" d="M128,479.26a3.25,3.25,0,0,1-3.25-3.25V450.37a3.25,3.25,0,1,1,6.51,0V476A3.25,3.25,0,0,1,128,479.26Z" transform="translate(-114.74 -337.96)"/><line class="cls-12" x1="103.6" y1="118.6" x2="188.33" y2="158.3"/><line class="cls-12" x1="76.16" y1="142.59" x2="131.86" y2="142.59"/><line class="cls-12" x1="102.79" y1="99.13" x2="102.79" y2="138.65"/><line class="cls-12" x1="123.35" y1="114.05" x2="123.35" y2="140.41"/><line class="cls-12" x1="82.82" y1="86.68" x2="82.82" y2="140.09"/><path d="M218,408.89a45.46,45.46,0,1,0,45.46,45.46A45.51,45.51,0,0,0,218,408.89Zm0,85.52A40.05,40.05,0,1,1,258,454.35,40.1,40.1,0,0,1,218,494.4Z" transform="translate(-114.74 -337.96)"/><path class="cls-10" d="M244.25,477h-1.82V452a4.34,4.34,0,1,0-8.68,0v25H221.83c0-.12,0-0.24,0-0.36V437.09a4.34,4.34,0,0,0-8.68,0v39.52c0,0.12,0,.24,0,0.36H201.9V424.64a4.33,4.33,0,0,0-.11-0.95,34.88,34.88,0,0,0-8.56,6.4V477h-1.51a34.94,34.94,0,0,0,8.48,7.15h35.59A34.94,34.94,0,0,0,244.25,477Z" transform="translate(-114.74 -337.96)"/><line class="cls-12" x1="145.97" y1="148.62" x2="154.01" y2="131.47"/><path class="cls-10" d="M306.1,489.79l-37.64-17.64-6.07,12.94L300,502.73A7.15,7.15,0,0,0,306.1,489.79Z" transform="translate(-114.74 -337.96)"/><path class="cls-10" d="M219.2,494a39.51,39.51,0,1,1,39.51-39.51A39.55,39.55,0,0,1,219.2,494Zm0-76.32A36.82,36.82,0,1,0,256,454.46,36.86,36.86,0,0,0,219.2,417.65Z" transform="translate(-114.74 -337.96)"/><polygon class="cls-10" points="142.86 129.1 136.68 141.99 146.03 146.38 152.1 133.43 142.86 129.1"/><path class="cls-10" d="M179.66,474H121.24V351.29a3.25,3.25,0,1,0-6.51,0V480.47h69Z" transform="translate(-114.74 -337.96)"/></svg>